<svg width="288" height="81" viewBox="0 0 288 81" fill="none" xmlns="http://www.w3.org/2000/svg">
<g filter="url(#filter0_d_202_38)">
<path d="M23.3223 42.1913C23.3223 40.9788 22.8892 40.0341 22.0232 39.357C21.1729 38.6799 19.6692 37.9792 17.5119 37.2549C15.3547 36.5305 13.5912 35.8298 12.2213 35.1528C7.76513 32.9641 5.53706 29.9566 5.53706 26.1303C5.53706 24.225 6.08817 22.548 7.19039 21.0994C8.30837 19.635 9.88297 18.5013 11.9142 17.6982C13.9455 16.8794 16.2286 16.47 18.7638 16.47C21.2359 16.47 23.4482 16.9109 25.4007 17.7927C27.369 18.6745 28.8964 19.9342 29.9828 21.5718C31.0693 23.1936 31.6126 25.0517 31.6126 27.1459H23.3459C23.3459 25.7445 22.9129 24.658 22.0468 23.8864C21.1965 23.1149 20.0392 22.7291 18.5748 22.7291C17.0947 22.7291 15.9216 23.0598 15.0556 23.7211C14.2053 24.3667 13.7801 25.1934 13.7801 26.2011C13.7801 27.0829 14.2525 27.886 15.1973 28.6103C16.142 29.3188 17.8033 30.0589 20.1809 30.8305C22.5586 31.5863 24.5111 32.4051 26.0385 33.2869C29.7545 35.4283 31.6126 38.3807 31.6126 42.144C31.6126 45.1515 30.4788 47.5134 28.2114 49.2298C25.944 50.9461 22.8341 51.8042 18.8819 51.8042C16.0948 51.8042 13.5676 51.3082 11.3001 50.3162C9.04843 49.3085 7.34785 47.9386 6.19839 46.2065C5.06467 44.4587 4.49781 42.4511 4.49781 40.1836H12.8117C12.8117 42.0259 13.2841 43.388 14.2289 44.2697C15.1894 45.1358 16.7404 45.5688 18.8819 45.5688C20.2518 45.5688 21.3304 45.2775 22.1177 44.6949C22.9207 44.0965 23.3223 43.262 23.3223 42.1913ZM54.7514 48.5684C53.0666 50.7256 50.7913 51.8042 47.9255 51.8042C45.1227 51.8042 42.997 50.9933 41.5483 49.3715C40.1154 47.7339 39.399 45.3877 39.399 42.333V25.776H47.3586V42.3802C47.3586 44.5689 48.4215 45.6633 50.5472 45.6633C52.3738 45.6633 53.6728 45.0098 54.4444 43.7029V25.776H62.4513V51.3319H54.9876L54.7514 48.5684ZM85.2595 51.3319C84.976 50.8122 84.7241 50.0486 84.5036 49.0408C83.0393 50.8831 80.9923 51.8042 78.3627 51.8042C75.9535 51.8042 73.9065 51.0799 72.2217 49.6313C70.5369 48.1669 69.6945 46.3325 69.6945 44.128C69.6945 41.3567 70.7179 39.2625 72.7649 37.8453C74.8119 36.4282 77.7879 35.7196 81.693 35.7196H84.1494V34.3733C84.1494 32.0272 83.1337 30.8541 81.1025 30.8541C79.213 30.8541 78.2682 31.7831 78.2682 33.6411H70.3085C70.3085 31.169 71.3557 29.1614 73.4499 27.6183C75.5599 26.0752 78.2446 25.3036 81.504 25.3036C84.7635 25.3036 87.3379 26.0988 89.2275 27.6891C91.117 29.2795 92.0854 31.4603 92.1326 34.2316V45.5452C92.1641 47.8913 92.5263 49.6864 93.2191 50.9303V51.3319H85.2595ZM80.2758 46.1357C81.2678 46.1357 82.0866 45.9231 82.7322 45.4979C83.3935 45.0728 83.8659 44.5925 84.1494 44.0572V39.9711H81.8347C79.0634 39.9711 77.6777 41.215 77.6777 43.7029C77.6777 44.4272 77.9218 45.0177 78.4099 45.4743C78.898 45.9152 79.52 46.1357 80.2758 46.1357ZM109.249 44.9547H123.68V51.3319H100.958V16.9424H109.249V44.9547ZM129.837 38.3177C129.837 35.7669 130.333 33.4994 131.325 31.5154C132.317 29.5157 133.742 27.9804 135.6 26.9097C137.458 25.839 139.639 25.3036 142.142 25.3036C145.968 25.3036 148.984 26.4924 151.188 28.8701C153.393 31.232 154.495 34.4521 154.495 38.5303V38.8137C154.495 42.7975 153.385 45.9625 151.165 48.3086C148.96 50.639 145.968 51.8042 142.189 51.8042C138.552 51.8042 135.631 50.7178 133.427 48.5448C131.222 46.3561 130.033 43.3958 129.86 39.664L129.837 38.3177ZM137.796 38.8137C137.796 41.1756 138.166 42.9077 138.906 44.0099C139.646 45.1122 140.741 45.6633 142.189 45.6633C145.024 45.6633 146.472 43.4824 146.535 39.1208V38.3177C146.535 33.7356 145.071 31.4446 142.142 31.4446C139.481 31.4446 138.04 33.4207 137.82 37.373L137.796 38.8137ZM161.1 38.365C161.1 35.7826 161.526 33.4994 162.376 31.5154C163.226 29.5314 164.446 28.004 166.037 26.9333C167.627 25.8468 169.477 25.3036 171.587 25.3036C174.248 25.3036 176.327 26.2011 177.823 27.9962L178.106 25.776H185.334V50.3635C185.334 52.6152 184.806 54.5677 183.751 56.221C182.712 57.8901 181.2 59.1655 179.216 60.0473C177.232 60.9448 174.933 61.3936 172.32 61.3936C170.446 61.3936 168.627 61.0393 166.864 60.3307C165.116 59.6222 163.777 58.701 162.848 57.5673L166.179 52.8907C167.659 54.6385 169.611 55.5124 172.036 55.5124C175.563 55.5124 177.327 53.7016 177.327 50.0801V49.277C175.799 50.9618 173.871 51.8042 171.54 51.8042C168.422 51.8042 165.903 50.6154 163.982 48.2378C162.061 45.8444 161.1 42.6479 161.1 38.6484V38.365ZM169.084 38.861C169.084 40.9552 169.477 42.6164 170.265 43.8446C171.052 45.0571 172.154 45.6633 173.571 45.6633C175.288 45.6633 176.539 45.0885 177.327 43.9391V33.1924C176.555 32.0272 175.319 31.4446 173.619 31.4446C172.201 31.4446 171.091 32.0823 170.288 33.3577C169.485 34.6174 169.084 36.4518 169.084 38.861ZM192.884 38.3177C192.884 35.7669 193.38 33.4994 194.372 31.5154C195.364 29.5157 196.789 27.9804 198.647 26.9097C200.505 25.839 202.686 25.3036 205.189 25.3036C209.016 25.3036 212.031 26.4924 214.236 28.8701C216.44 31.232 217.542 34.4521 217.542 38.5303V38.8137C217.542 42.7975 216.432 45.9625 214.212 48.3086C212.008 50.639 209.016 51.8042 205.237 51.8042C201.599 51.8042 198.678 50.7178 196.474 48.5448C194.27 46.3561 193.081 43.3958 192.908 39.664L192.884 38.3177ZM200.844 38.8137C200.844 41.1756 201.214 42.9077 201.954 44.0099C202.694 45.1122 203.788 45.6633 205.237 45.6633C208.071 45.6633 209.52 43.4824 209.583 39.1208V38.3177C209.583 33.7356 208.118 31.4446 205.189 31.4446C202.528 31.4446 201.088 33.4207 200.867 37.373L200.844 38.8137Z" fill="#354446"/>
<path d="M233.582 52.6542H224.61L226.879 39.8063H235.851L236.985 33.1752H228.116L230.385 20.3273H239.254L242.658 0.848251H256.374L252.971 20.3273H261.325L264.728 0.848251H278.445L275.041 20.3273H284.014L281.745 33.1752H272.772L271.638 39.8063H280.507L278.238 52.6542H269.369L265.966 72.1332H252.249L255.652 52.6542H247.299L243.895 72.1332H230.179L233.582 52.6542ZM257.921 39.8063L259.056 33.1752H250.702L249.568 39.8063H257.921Z" fill="#FFD658"/>
</g>
<defs>
<filter id="filter0_d_202_38" x="0.497818" y="0.848251" width="287.516" height="79.285" filterUnits="userSpaceOnUse" color-interpolation-filters="sRGB">
<feFlood flood-opacity="0" result="BackgroundImageFix"/>
<feColorMatrix in="SourceAlpha" type="matrix" values="0 0 0 0 0 0 0 0 0 0 0 0 0 0 0 0 0 0 127 0" result="hardAlpha"/>
<feOffset dy="4"/>
<feGaussianBlur stdDeviation="2"/>
<feComposite in2="hardAlpha" operator="out"/>
<feColorMatrix type="matrix" values="0 0 0 0 0 0 0 0 0 0 0 0 0 0 0 0 0 0 0.25 0"/>
<feBlend mode="normal" in2="BackgroundImageFix" result="effect1_dropShadow_202_38"/>
<feBlend mode="normal" in="SourceGraphic" in2="effect1_dropShadow_202_38" result="shape"/>
</filter>
</defs>
</svg>
